<mxfile host="app.diagrams.net" agent="Mozilla/5.0 (Windows NT 10.0; Win64; x64) AppleWebKit/537.36 (KHTML, like Gecko) Chrome/138.0.0.0 Safari/537.36" version="28.1.0">
  <diagram name="Page-1" id="PKOy-ccs_s2mH0wN9jkz">
    <mxGraphModel dx="1896" dy="839" grid="1" gridSize="10" guides="1" tooltips="1" connect="1" arrows="1" fold="1" page="1" pageScale="1" pageWidth="850" pageHeight="1100" math="0" shadow="0">
      <root>
        <mxCell id="0" />
        <mxCell id="1" parent="0" />
        <mxCell id="RyHVlW7WLnJ-J5-jJjL4-6" value="&lt;font style=&quot;color: light-dark(rgb(0, 0, 0), rgb(0, 0, 0));&quot;&gt;crm_prd_info&lt;/font&gt;" style="swimlane;fontStyle=0;childLayout=stackLayout;horizontal=1;startSize=30;horizontalStack=0;resizeParent=1;resizeParentMax=0;resizeLast=0;collapsible=1;marginBottom=0;whiteSpace=wrap;html=1;fillColor=light-dark(#000000,#BDE0FE);" parent="1" vertex="1">
          <mxGeometry x="331.25" y="210" width="140" height="60" as="geometry" />
        </mxCell>
        <mxCell id="RyHVlW7WLnJ-J5-jJjL4-7" value="prd_key" style="text;strokeColor=none;fillColor=none;align=left;verticalAlign=middle;spacingLeft=4;spacingRight=4;overflow=hidden;points=[[0,0.5],[1,0.5]];portConstraint=eastwest;rotatable=0;whiteSpace=wrap;html=1;" parent="RyHVlW7WLnJ-J5-jJjL4-6" vertex="1">
          <mxGeometry y="30" width="140" height="30" as="geometry" />
        </mxCell>
        <UserObject label="&lt;font style=&quot;font-size: 11px;&quot;&gt;Customer information&lt;/font&gt;" placeholders="1" name="Variable" id="RyHVlW7WLnJ-J5-jJjL4-9">
          <mxCell style="text;html=1;strokeColor=none;fillColor=none;align=center;verticalAlign=middle;whiteSpace=wrap;overflow=hidden;" parent="1" vertex="1">
            <mxGeometry x="335" y="310" width="130" height="20" as="geometry" />
          </mxCell>
        </UserObject>
        <UserObject label="&lt;font style=&quot;font-size: 11px;&quot;&gt;Current &amp;amp; History Product Information&lt;/font&gt;" placeholders="1" name="Variable" id="RyHVlW7WLnJ-J5-jJjL4-10">
          <mxCell style="text;html=1;strokeColor=none;fillColor=none;align=center;verticalAlign=middle;whiteSpace=wrap;overflow=hidden;" parent="1" vertex="1">
            <mxGeometry x="323.75" y="176" width="152.5" height="30" as="geometry" />
          </mxCell>
        </UserObject>
        <mxCell id="RyHVlW7WLnJ-J5-jJjL4-11" value="&lt;font style=&quot;color: light-dark(rgb(0, 0, 0), rgb(0, 0, 0));&quot;&gt;crm_sales_details&lt;/font&gt;" style="swimlane;fontStyle=0;childLayout=stackLayout;horizontal=1;startSize=30;horizontalStack=0;resizeParent=1;resizeParentMax=0;resizeLast=0;collapsible=1;marginBottom=0;whiteSpace=wrap;html=1;fillColor=light-dark(#000000,#BDE0FE);" parent="1" vertex="1">
          <mxGeometry x="90" y="260" width="140" height="90" as="geometry" />
        </mxCell>
        <mxCell id="RyHVlW7WLnJ-J5-jJjL4-12" value="prd_key" style="text;strokeColor=none;fillColor=none;align=left;verticalAlign=middle;spacingLeft=4;spacingRight=4;overflow=hidden;points=[[0,0.5],[1,0.5]];portConstraint=eastwest;rotatable=0;whiteSpace=wrap;html=1;" parent="RyHVlW7WLnJ-J5-jJjL4-11" vertex="1">
          <mxGeometry y="30" width="140" height="30" as="geometry" />
        </mxCell>
        <mxCell id="RyHVlW7WLnJ-J5-jJjL4-14" value="cst_id" style="text;strokeColor=none;fillColor=none;align=left;verticalAlign=middle;spacingLeft=4;spacingRight=4;overflow=hidden;points=[[0,0.5],[1,0.5]];portConstraint=eastwest;rotatable=0;whiteSpace=wrap;html=1;" parent="RyHVlW7WLnJ-J5-jJjL4-11" vertex="1">
          <mxGeometry y="60" width="140" height="30" as="geometry" />
        </mxCell>
        <UserObject label="&lt;font style=&quot;font-size: 11px;&quot;&gt;Transactional Records About Sales &amp;amp; Orders&lt;/font&gt;" placeholders="1" name="Variable" id="RyHVlW7WLnJ-J5-jJjL4-13">
          <mxCell style="text;html=1;strokeColor=none;fillColor=none;align=center;verticalAlign=middle;whiteSpace=wrap;overflow=hidden;" parent="1" vertex="1">
            <mxGeometry x="70" y="220" width="180" height="40" as="geometry" />
          </mxCell>
        </UserObject>
        <mxCell id="RyHVlW7WLnJ-J5-jJjL4-15" style="edgeStyle=orthogonalEdgeStyle;rounded=0;orthogonalLoop=1;jettySize=auto;html=1;entryX=0;entryY=0.5;entryDx=0;entryDy=0;" parent="1" source="RyHVlW7WLnJ-J5-jJjL4-12" target="RyHVlW7WLnJ-J5-jJjL4-6" edge="1">
          <mxGeometry relative="1" as="geometry" />
        </mxCell>
        <mxCell id="RyHVlW7WLnJ-J5-jJjL4-16" style="edgeStyle=orthogonalEdgeStyle;rounded=0;orthogonalLoop=1;jettySize=auto;html=1;entryX=0;entryY=0.5;entryDx=0;entryDy=0;" parent="1" source="RyHVlW7WLnJ-J5-jJjL4-12" target="RyHVlW7WLnJ-J5-jJjL4-39" edge="1">
          <mxGeometry relative="1" as="geometry" />
        </mxCell>
        <mxCell id="RyHVlW7WLnJ-J5-jJjL4-29" value="&lt;font style=&quot;color: light-dark(rgb(0, 0, 0), rgb(0, 0, 0));&quot;&gt;erp_csut_az12&lt;/font&gt;" style="swimlane;fontStyle=0;childLayout=stackLayout;horizontal=1;startSize=30;horizontalStack=0;resizeParent=1;resizeParentMax=0;resizeLast=0;collapsible=1;marginBottom=0;whiteSpace=wrap;html=1;fillColor=light-dark(#000000,#F6BD60);" parent="1" vertex="1">
          <mxGeometry x="580" y="310" width="140" height="60" as="geometry" />
        </mxCell>
        <mxCell id="RyHVlW7WLnJ-J5-jJjL4-30" value="cid" style="text;strokeColor=none;fillColor=none;align=left;verticalAlign=middle;spacingLeft=4;spacingRight=4;overflow=hidden;points=[[0,0.5],[1,0.5]];portConstraint=eastwest;rotatable=0;whiteSpace=wrap;html=1;" parent="RyHVlW7WLnJ-J5-jJjL4-29" vertex="1">
          <mxGeometry y="30" width="140" height="30" as="geometry" />
        </mxCell>
        <UserObject label="&lt;font style=&quot;font-size: 11px;&quot;&gt;Extra Customer Information (Birthdate)&lt;/font&gt;" placeholders="1" name="Variable" id="RyHVlW7WLnJ-J5-jJjL4-31">
          <mxCell style="text;html=1;strokeColor=none;fillColor=none;align=center;verticalAlign=middle;whiteSpace=wrap;overflow=hidden;" parent="1" vertex="1">
            <mxGeometry x="575" y="270" width="152.5" height="30" as="geometry" />
          </mxCell>
        </UserObject>
        <mxCell id="RyHVlW7WLnJ-J5-jJjL4-38" value="&lt;span&gt;&lt;font style=&quot;color: light-dark(rgb(0, 0, 0), rgb(0, 0, 0));&quot;&gt;crm_cust_info&lt;/font&gt;&lt;/span&gt;" style="swimlane;fontStyle=0;childLayout=stackLayout;horizontal=1;startSize=30;horizontalStack=0;resizeParent=1;resizeParentMax=0;resizeLast=0;collapsible=1;marginBottom=0;whiteSpace=wrap;html=1;fillColor=light-dark(#000000,#BDE0FE);" parent="1" vertex="1">
          <mxGeometry x="331.25" y="330" width="140" height="90" as="geometry" />
        </mxCell>
        <mxCell id="RyHVlW7WLnJ-J5-jJjL4-39" value="cst_id" style="text;strokeColor=none;fillColor=none;align=left;verticalAlign=middle;spacingLeft=4;spacingRight=4;overflow=hidden;points=[[0,0.5],[1,0.5]];portConstraint=eastwest;rotatable=0;whiteSpace=wrap;html=1;" parent="RyHVlW7WLnJ-J5-jJjL4-38" vertex="1">
          <mxGeometry y="30" width="140" height="30" as="geometry" />
        </mxCell>
        <mxCell id="RyHVlW7WLnJ-J5-jJjL4-40" value="cst_key" style="text;strokeColor=none;fillColor=none;align=left;verticalAlign=middle;spacingLeft=4;spacingRight=4;overflow=hidden;points=[[0,0.5],[1,0.5]];portConstraint=eastwest;rotatable=0;whiteSpace=wrap;html=1;" parent="RyHVlW7WLnJ-J5-jJjL4-38" vertex="1">
          <mxGeometry y="60" width="140" height="30" as="geometry" />
        </mxCell>
        <mxCell id="RyHVlW7WLnJ-J5-jJjL4-42" style="edgeStyle=orthogonalEdgeStyle;rounded=0;orthogonalLoop=1;jettySize=auto;html=1;entryX=0;entryY=0.5;entryDx=0;entryDy=0;exitX=0.992;exitY=0.771;exitDx=0;exitDy=0;exitPerimeter=0;" parent="1" source="RyHVlW7WLnJ-J5-jJjL4-39" target="RyHVlW7WLnJ-J5-jJjL4-30" edge="1">
          <mxGeometry relative="1" as="geometry" />
        </mxCell>
        <mxCell id="RyHVlW7WLnJ-J5-jJjL4-43" value="&lt;font style=&quot;color: light-dark(rgb(0, 0, 0), rgb(0, 0, 0));&quot;&gt;erp_loc_a101&lt;/font&gt;" style="swimlane;fontStyle=0;childLayout=stackLayout;horizontal=1;startSize=30;horizontalStack=0;resizeParent=1;resizeParentMax=0;resizeLast=0;collapsible=1;marginBottom=0;whiteSpace=wrap;html=1;fillColor=light-dark(#000000,#F6BD60);" parent="1" vertex="1">
          <mxGeometry x="581.25" y="420" width="140" height="60" as="geometry" />
        </mxCell>
        <mxCell id="RyHVlW7WLnJ-J5-jJjL4-44" value="cid" style="text;strokeColor=none;fillColor=none;align=left;verticalAlign=middle;spacingLeft=4;spacingRight=4;overflow=hidden;points=[[0,0.5],[1,0.5]];portConstraint=eastwest;rotatable=0;whiteSpace=wrap;html=1;" parent="RyHVlW7WLnJ-J5-jJjL4-43" vertex="1">
          <mxGeometry y="30" width="140" height="30" as="geometry" />
        </mxCell>
        <UserObject label="&lt;font style=&quot;font-size: 11px;&quot;&gt;Location of customer (Country)&lt;/font&gt;" placeholders="1" name="Variable" id="RyHVlW7WLnJ-J5-jJjL4-45">
          <mxCell style="text;html=1;strokeColor=none;fillColor=none;align=center;verticalAlign=middle;whiteSpace=wrap;overflow=hidden;" parent="1" vertex="1">
            <mxGeometry x="575" y="400" width="152.5" height="20" as="geometry" />
          </mxCell>
        </UserObject>
        <mxCell id="RyHVlW7WLnJ-J5-jJjL4-46" style="edgeStyle=orthogonalEdgeStyle;rounded=0;orthogonalLoop=1;jettySize=auto;html=1;entryX=0;entryY=0.5;entryDx=0;entryDy=0;" parent="1" edge="1">
          <mxGeometry relative="1" as="geometry">
            <mxPoint x="471.25" y="383.0344827586207" as="sourcePoint" />
            <mxPoint x="582.5" y="448.0000000000001" as="targetPoint" />
            <Array as="points">
              <mxPoint x="527" y="383" />
              <mxPoint x="527" y="448" />
            </Array>
          </mxGeometry>
        </mxCell>
        <mxCell id="RyHVlW7WLnJ-J5-jJjL4-47" value="&lt;font style=&quot;color: light-dark(rgb(0, 0, 0), rgb(0, 0, 0));&quot;&gt;erp_px_cat_g1v2&lt;/font&gt;" style="swimlane;fontStyle=0;childLayout=stackLayout;horizontal=1;startSize=30;horizontalStack=0;resizeParent=1;resizeParentMax=0;resizeLast=0;collapsible=1;marginBottom=0;whiteSpace=wrap;html=1;fillColor=light-dark(#000000,#F6BD60);" parent="1" vertex="1">
          <mxGeometry x="581.25" y="190" width="140" height="60" as="geometry" />
        </mxCell>
        <mxCell id="RyHVlW7WLnJ-J5-jJjL4-48" value="id" style="text;strokeColor=none;fillColor=none;align=left;verticalAlign=middle;spacingLeft=4;spacingRight=4;overflow=hidden;points=[[0,0.5],[1,0.5]];portConstraint=eastwest;rotatable=0;whiteSpace=wrap;html=1;" parent="RyHVlW7WLnJ-J5-jJjL4-47" vertex="1">
          <mxGeometry y="30" width="140" height="30" as="geometry" />
        </mxCell>
        <UserObject label="&lt;font style=&quot;font-size: 11px;&quot;&gt;Product Categories&lt;/font&gt;" placeholders="1" name="Variable" id="RyHVlW7WLnJ-J5-jJjL4-49">
          <mxCell style="text;html=1;strokeColor=none;fillColor=none;align=center;verticalAlign=middle;whiteSpace=wrap;overflow=hidden;" parent="1" vertex="1">
            <mxGeometry x="580" y="170" width="152.5" height="20" as="geometry" />
          </mxCell>
        </UserObject>
        <mxCell id="RyHVlW7WLnJ-J5-jJjL4-50" style="edgeStyle=orthogonalEdgeStyle;rounded=0;orthogonalLoop=1;jettySize=auto;html=1;entryX=-0.006;entryY=0.174;entryDx=0;entryDy=0;entryPerimeter=0;" parent="1" source="RyHVlW7WLnJ-J5-jJjL4-7" target="RyHVlW7WLnJ-J5-jJjL4-48" edge="1">
          <mxGeometry relative="1" as="geometry" />
        </mxCell>
        <UserObject label="&lt;font style=&quot;font-size: 16px;&quot;&gt;&lt;b style=&quot;&quot;&gt;Integration Model: How Tables are related&lt;/b&gt;&lt;/font&gt;" placeholders="1" name="Variable" id="RyHVlW7WLnJ-J5-jJjL4-51">
          <mxCell style="text;html=1;strokeColor=none;fillColor=none;align=center;verticalAlign=middle;whiteSpace=wrap;overflow=hidden;" parent="1" vertex="1">
            <mxGeometry x="20" y="30" width="250" height="40" as="geometry" />
          </mxCell>
        </UserObject>
        <mxCell id="RyHVlW7WLnJ-J5-jJjL4-53" value="" style="rounded=0;whiteSpace=wrap;html=1;fillColor=none;dashed=1;" parent="1" vertex="1">
          <mxGeometry x="60" y="150" width="440" height="350" as="geometry" />
        </mxCell>
        <mxCell id="RyHVlW7WLnJ-J5-jJjL4-54" value="&lt;font style=&quot;color: light-dark(rgb(0, 0, 0), rgb(0, 0, 0));&quot;&gt;CRM&lt;/font&gt;" style="rounded=1;whiteSpace=wrap;html=1;strokeColor=light-dark(#000000,#1A2929);fillColor=light-dark(#000000,#BDE0FE);" parent="1" vertex="1">
          <mxGeometry x="220" y="130" width="120" height="30" as="geometry" />
        </mxCell>
        <mxCell id="RyHVlW7WLnJ-J5-jJjL4-56" value="" style="rounded=0;whiteSpace=wrap;html=1;fillColor=none;dashed=1;strokeColor=none;" parent="1" vertex="1">
          <mxGeometry x="526.25" y="150" width="260" height="350" as="geometry" />
        </mxCell>
        <mxCell id="RyHVlW7WLnJ-J5-jJjL4-57" value="&lt;font style=&quot;color: light-dark(rgb(0, 0, 0), rgb(0, 0, 0));&quot;&gt;ERP&lt;/font&gt;" style="rounded=1;whiteSpace=wrap;html=1;strokeColor=light-dark(#000000,#1A2929);fillColor=light-dark(#000000,#F6BD60);" parent="1" vertex="1">
          <mxGeometry x="591.25" y="130" width="120" height="30" as="geometry" />
        </mxCell>
        <mxCell id="RyHVlW7WLnJ-J5-jJjL4-58" style="edgeStyle=orthogonalEdgeStyle;rounded=0;orthogonalLoop=1;jettySize=auto;html=1;exitX=0.5;exitY=1;exitDx=0;exitDy=0;" parent="1" source="RyHVlW7WLnJ-J5-jJjL4-53" target="RyHVlW7WLnJ-J5-jJjL4-53" edge="1">
          <mxGeometry relative="1" as="geometry" />
        </mxCell>
        <mxCell id="RyHVlW7WLnJ-J5-jJjL4-61" value="&lt;font style=&quot;color: light-dark(rgb(0, 0, 0), rgb(0, 0, 0)); font-size: 10px;&quot;&gt;&lt;b&gt;Product&lt;/b&gt;&lt;/font&gt;" style="rounded=0;whiteSpace=wrap;html=1;fillColor=light-dark(#FFFFFF,#F4ACB7);" parent="1" vertex="1">
          <mxGeometry x="331.25" y="270" width="138.75" height="20" as="geometry" />
        </mxCell>
        <mxCell id="RyHVlW7WLnJ-J5-jJjL4-62" value="&lt;font style=&quot;color: light-dark(rgb(0, 0, 0), rgb(0, 0, 0)); font-size: 10px;&quot;&gt;&lt;b style=&quot;&quot;&gt;Product&lt;/b&gt;&lt;/font&gt;" style="rounded=0;whiteSpace=wrap;html=1;fillColor=light-dark(#FFFFFF,#F4ACB7);" parent="1" vertex="1">
          <mxGeometry x="580" y="250" width="141.25" height="10" as="geometry" />
        </mxCell>
        <mxCell id="RyHVlW7WLnJ-J5-jJjL4-63" value="&lt;font style=&quot;color: light-dark(rgb(0, 0, 0), rgb(0, 0, 0)); font-size: 10px;&quot;&gt;&lt;b&gt;Customer&lt;/b&gt;&lt;/font&gt;" style="rounded=0;whiteSpace=wrap;html=1;fillColor=light-dark(#FFFFFF,#A7C957);" parent="1" vertex="1">
          <mxGeometry x="331.25" y="420" width="138.75" height="20" as="geometry" />
        </mxCell>
        <mxCell id="RyHVlW7WLnJ-J5-jJjL4-65" value="&lt;font style=&quot;color: light-dark(rgb(0, 0, 0), rgb(0, 0, 0)); font-size: 10px;&quot;&gt;&lt;b style=&quot;&quot;&gt;Customer&lt;/b&gt;&lt;/font&gt;" style="rounded=0;whiteSpace=wrap;html=1;fillColor=light-dark(#FFFFFF,#A7C957);" parent="1" vertex="1">
          <mxGeometry x="580.25" y="370" width="139.75" height="10" as="geometry" />
        </mxCell>
        <mxCell id="RyHVlW7WLnJ-J5-jJjL4-66" value="&lt;font style=&quot;color: light-dark(rgb(0, 0, 0), rgb(0, 0, 0)); font-size: 10px;&quot;&gt;&lt;b style=&quot;&quot;&gt;Customer&lt;/b&gt;&lt;/font&gt;" style="rounded=0;whiteSpace=wrap;html=1;fillColor=light-dark(#FFFFFF,#A7C957);" parent="1" vertex="1">
          <mxGeometry x="580.75" y="480" width="139.75" height="10" as="geometry" />
        </mxCell>
      </root>
    </mxGraphModel>
  </diagram>
</mxfile>
